<svg width="227" height="227" viewBox="0 0 227 227" fill="none" xmlns="http://www.w3.org/2000/svg">
<path fill-rule="evenodd" clip-rule="evenodd" d="M183.537 43.052C164.958 24.4451 140.244 14.2017 113.919 14.1875C59.6656 14.1875 15.507 58.339 15.4928 112.606C15.4857 129.957 20.0186 146.89 28.6304 161.808L14.6628 212.812L66.8374 199.129C81.2093 206.974 97.3973 211.103 113.869 211.11H113.912C168.157 211.11 212.316 166.958 212.33 112.691C212.337 86.3877 202.115 61.666 183.53 43.0662L183.537 43.052ZM113.919 194.482H113.883C99.2062 194.482 84.8058 190.531 72.2428 183.083L69.2563 181.309L38.2921 189.432L46.5563 159.24L44.6127 156.148C36.4265 143.123 32.0993 128.071 32.1064 112.613C32.1277 67.5112 68.8236 30.8152 113.947 30.8152C135.796 30.8223 156.332 39.3419 171.782 54.8063C187.225 70.2636 195.731 90.8213 195.717 112.677C195.695 157.786 159.006 194.482 113.919 194.482ZM158.787 133.221C156.325 131.986 144.237 126.042 141.981 125.219C139.726 124.396 138.087 123.985 136.448 126.453C134.81 128.915 130.099 134.455 128.659 136.094C127.226 137.739 125.786 137.938 123.332 136.704C120.87 135.469 112.947 132.873 103.555 124.502C96.2481 117.983 91.3108 109.932 89.8708 107.463C88.4378 105.002 89.7218 103.668 90.949 102.448C92.0557 101.341 93.4106 99.575 94.6378 98.142C95.8721 96.7091 96.2764 95.6805 97.0993 94.0418C97.9222 92.3961 97.5108 90.9632 96.8936 89.7359C96.2764 88.5016 91.3605 76.3997 89.3104 71.4766C87.317 66.6813 85.2882 67.3339 83.7772 67.2558C82.3443 67.1849 80.7057 67.1707 79.0599 67.1707C77.4142 67.1707 74.754 67.7808 72.4982 70.2494C70.2424 72.7109 63.8935 78.6626 63.8935 90.7645C63.8935 102.866 72.7039 114.564 73.9382 116.21C75.1725 117.856 91.2824 142.691 115.947 153.346C121.814 155.878 126.397 157.396 129.972 158.524C135.86 160.397 141.222 160.134 145.457 159.503C150.182 158.794 160.007 153.551 162.057 147.805C164.107 142.059 164.107 137.136 163.49 136.108C162.873 135.079 161.234 134.462 158.772 133.235L158.787 133.221Z" fill="black"/>
</svg>
