<svg width="512" height="512" viewBox="0 0 512 512" fill="none" xmlns="http://www.w3.org/2000/svg">
<path d="M189 9H325C333.284 9 340 15.7157 340 24V126.597C340 130.561 338.431 134.364 335.636 137.175L267.636 205.544C261.771 211.44 252.229 211.44 246.364 205.544L178.364 137.175C175.569 134.364 174 130.561 174 126.597V24C174 15.7157 180.716 9 189 9Z" fill="black" stroke="black" stroke-width="18"/>
<path d="M324 502.994H188C179.716 502.994 173 496.278 173 487.994V385.397C173 381.433 174.569 377.63 177.364 374.819L245.364 306.45C251.229 300.554 260.771 300.554 266.636 306.45L334.636 374.819C337.431 377.63 339 381.433 339 385.397V487.994C339 496.278 332.284 502.994 324 502.994Z" fill="black" stroke="black" stroke-width="18"/>
<path d="M502.994 188.994V324.994C502.994 333.278 496.278 339.994 487.994 339.994H385.397C381.433 339.994 377.63 338.425 374.819 335.63L306.45 267.63C300.554 261.766 300.554 252.223 306.45 246.358L374.819 178.358C377.63 175.563 381.433 173.994 385.397 173.994H487.994C496.278 173.994 502.994 180.71 502.994 188.994Z" fill="black" stroke="black" stroke-width="18"/>
<path d="M9 323.994V187.994C9 179.71 15.7157 172.994 24 172.994H126.597C130.561 172.994 134.364 174.563 137.175 177.358L205.544 245.358C211.44 251.223 211.44 260.766 205.544 266.63L137.175 334.63C134.364 337.425 130.561 338.994 126.597 338.994H24C15.7157 338.994 9 332.278 9 323.994Z" fill="black" stroke="black" stroke-width="18"/>
</svg>
