<?xml version="1.0" encoding="UTF-8"?>
<svg id="Layer_2" data-name="Layer 2" xmlns="http://www.w3.org/2000/svg" viewBox="0 0 365.02 365.02">
  <g id="Layer_1-2" data-name="Layer 1">
    <path d="M182.51,238.96c-5.25-12.57-12.92-24.11-22.63-33.82-8.24-8.24-17.61-14.94-27.77-19.96-2.22-1.1-2.22-4.25,0-5.34,10.16-5.02,19.53-11.72,27.77-19.96,8.17-8.17,14.9-17.64,19.95-27.93,1.09-2.23,4.25-2.23,5.35,0,5.05,10.29,11.78,19.75,19.95,27.93,8.24,8.24,17.61,14.94,27.77,19.96,2.22,1.1,2.22,4.25,0,5.34-10.16,5.02-19.53,11.72-27.77,19.96-9.71,9.71-17.38,21.25-22.63,33.82M182.51,365.02c2.58,0,5.15-.98,7.12-2.95l41.47-41.47c3.3-3.3,3.89-8.42,1.44-12.4-13.04-21.19-10.39-49.37,7.96-67.71,10.72-10.72,24.8-16.08,38.89-16.08,10.01,0,20.02,2.71,28.83,8.13,1.64,1.01,3.47,1.5,5.29,1.5,2.6,0,5.17-1,7.11-2.94l41.47-41.47c3.93-3.93,3.93-10.3,0-14.23l-41.47-41.47c-1.94-1.94-4.51-2.94-7.11-2.94-1.82,0-3.65.49-5.29,1.5-8.8,5.42-18.81,8.13-28.83,8.13-14.08,0-28.17-5.36-38.89-16.08-18.34-18.34-20.99-46.53-7.96-67.71,2.44-3.97,1.85-9.1-1.44-12.4L189.62,2.95c-1.97-1.96-4.54-2.95-7.12-2.95s-5.15.98-7.12,2.95l-41.47,41.47c-3.3,3.3-3.89,8.42-1.44,12.4,13.04,21.19,10.39,49.37-7.96,67.71-10.72,10.72-24.8,16.08-38.89,16.08-10.01,0-20.02-2.71-28.83-8.13-1.64-1.01-3.47-1.5-5.29-1.5-2.6,0-5.17,1-7.11,2.94L2.95,175.39c-3.93,3.93-3.93,10.3,0,14.23l41.47,41.47c1.94,1.94,4.51,2.94,7.11,2.94,1.82,0,3.65-.49,5.29-1.5,8.8-5.42,18.81-8.13,28.83-8.13,14.08,0,28.17,5.36,38.89,16.08,18.34,18.34,20.99,46.53,7.96,67.71-2.44,3.97-1.85,9.1,1.44,12.4l41.47,41.47c1.97,1.96,4.54,2.95,7.12,2.95h0Z"/>
  </g>
</svg>