<svg width="663" height="663" viewBox="0 0 663 663" fill="none" xmlns="http://www.w3.org/2000/svg">
<path d="M213.665 24C213.665 10.7452 224.41 0 237.665 0H427.933C441.188 0 451.933 10.7452 451.933 24V166.856C451.933 173.198 449.422 179.283 444.949 183.78L349.815 279.432C340.432 288.865 325.165 288.866 315.782 279.432L220.648 183.78C216.175 179.283 213.665 173.198 213.665 166.856V24Z" fill="#272626"/>
<path d="M450.638 639C450.638 652.255 439.893 663 426.638 663H236.37C223.115 663 212.37 652.255 212.37 639V496.144C212.37 489.802 214.88 483.717 219.353 479.22L314.487 383.568C323.87 374.135 339.137 374.134 348.52 383.568L443.654 479.22C448.127 483.717 450.638 489.802 450.638 496.144V639Z" fill="#272626"/>
<path d="M639 213.657C652.255 213.657 663 224.402 663 237.657V427.926C663 441.18 652.255 451.926 639 451.926H496.144C489.802 451.926 483.717 449.415 479.22 444.942L383.568 349.808C374.135 340.425 374.134 325.158 383.568 315.775L479.22 220.641C483.717 216.168 489.802 213.657 496.144 213.657H639Z" fill="#272626"/>
<path d="M24 450.631C10.7452 450.631 0 439.886 0 426.631V236.362C0 223.108 10.7452 212.362 24 212.362H166.856C173.198 212.362 179.283 214.873 183.78 219.346L279.432 314.48C288.865 323.863 288.866 339.13 279.432 348.513L183.78 443.647C179.283 448.12 173.198 450.631 166.856 450.631H24Z" fill="#272626"/>
</svg>
