<svg width="227" height="227" viewBox="0 0 227 227" fill="none" xmlns="http://www.w3.org/2000/svg">
<path fill-rule="evenodd" clip-rule="evenodd" d="M113.5 14.1875C58.6511 14.1875 14.1875 58.6511 14.1875 113.5C14.1875 168.349 58.6511 212.812 113.5 212.812C168.349 212.812 212.812 168.349 212.812 113.5C212.812 58.6511 168.349 14.1875 113.5 14.1875ZM159.531 81.7271C158.035 97.4327 151.572 135.54 148.281 153.126C146.89 160.567 144.145 163.064 141.492 163.305C135.725 163.837 131.348 159.496 125.758 155.836C117.019 150.104 112.081 146.536 103.597 140.946C93.7936 134.483 100.15 130.929 105.739 125.127C107.201 123.609 132.611 100.497 133.107 98.3974C133.171 98.1349 133.228 97.156 132.646 96.6382C132.064 96.1203 131.206 96.2977 130.589 96.4395C129.709 96.6382 115.749 105.867 88.7002 124.126C84.7348 126.85 81.1454 128.177 77.9319 128.106C74.3851 128.028 67.568 126.099 62.4959 124.453C56.2747 122.431 51.3304 121.36 51.7631 117.927C51.9901 116.139 54.4516 114.309 59.1548 112.443C88.1044 99.8303 107.414 91.5165 117.068 87.4943C144.649 76.0237 150.38 74.0304 154.112 73.9665C154.935 73.9523 156.772 74.1581 157.964 75.1228C158.971 75.9386 159.248 77.0381 159.375 77.8113C159.51 78.5846 159.673 80.3438 159.538 81.72L159.531 81.7271Z" fill="black"/>
</svg>
